<?xml version="1.0" encoding="utf-8"?>
<!-- Generator: Adobe Illustrator 25.1.0, SVG Export Plug-In . SVG Version: 6.00 Build 0)  -->
<svg version="1.1" xmlns="http://www.w3.org/2000/svg" xmlns:xlink="http://www.w3.org/1999/xlink" x="0px" y="0px"
	 viewBox="0 0 1080 1080" style="enable-background:new 0 0 1080 1080;" xml:space="preserve">
<style type="text/css">
	.st0{display:none;}
	.st1{display:inline;}
	.st2{fill-rule:evenodd;clip-rule:evenodd;fill:#FFA600;}
	.st3{fill-rule:evenodd;clip-rule:evenodd;fill:#FEFEFE;}
	.st4{fill-rule:evenodd;clip-rule:evenodd;fill:#CDFADA;}
	.st5{fill-rule:evenodd;clip-rule:evenodd;fill:#FFD06B;}
	.st6{fill-rule:evenodd;clip-rule:evenodd;fill:#FFF0C7;}
	.st7{fill-rule:evenodd;clip-rule:evenodd;fill:#56D66E;}
	.st8{fill-rule:evenodd;clip-rule:evenodd;fill:#00843C;}
	.st9{fill-rule:evenodd;clip-rule:evenodd;fill:#C41265;}
	.st10{fill-rule:evenodd;clip-rule:evenodd;fill:#F57A9D;}
	.st11{fill-rule:evenodd;clip-rule:evenodd;fill:#CCE4FF;}
	.st12{fill-rule:evenodd;clip-rule:evenodd;fill:#6697DD;}
	.st13{fill-rule:evenodd;clip-rule:evenodd;fill:#2B4D99;}
	.st14{fill-rule:evenodd;clip-rule:evenodd;fill:#FFDEDE;}
	.st15{fill:#FFFFFF;}
	.st16{fill-rule:evenodd;clip-rule:evenodd;fill:none;}
</style>
<g id="Color" class="st0">
	<g class="st1">
		<g>
			<g>
				<polygon class="st2" points="367.2,453.6 453.6,367.2 540,453.6 453.6,540 367.2,453.6 				"/>
				<polygon class="st3" points="108,540 194.4,453.6 280.8,540 194.4,626.4 108,540 				"/>
				<polygon class="st4" points="194.4,453.6 280.8,367.2 367.2,453.6 280.8,540 194.4,453.6 				"/>
				<polygon class="st5" points="280.8,367.2 367.2,280.8 453.6,367.2 367.2,453.6 280.8,367.2 				"/>
				<polygon class="st6" points="367.2,280.8 453.6,194.4 540,280.8 453.6,367.2 367.2,280.8 				"/>
				<polygon class="st3" points="453.6,194.4 540,108 626.4,194.4 540,280.8 453.6,194.4 				"/>
				<polygon class="st4" points="194.4,626.4 280.8,540 367.2,626.4 280.8,712.8 194.4,626.4 				"/>
				<polygon class="st7" points="280.8,540 367.2,453.6 453.6,540 367.2,626.4 280.8,540 				"/>
				<polygon class="st5" points="453.6,367.2 540,280.8 626.4,367.2 540,453.6 453.6,367.2 				"/>
				<polygon class="st6" points="540,280.8 626.4,194.4 712.8,280.8 626.4,367.2 540,280.8 				"/>
				<polygon class="st7" points="280.8,712.8 367.2,626.4 453.6,712.8 367.2,799.2 280.8,712.8 				"/>
				<polygon class="st8" points="367.2,626.4 453.6,540 540,626.4 453.6,712.8 367.2,626.4 				"/>
				<polygon class="st9" points="540,453.6 626.4,367.2 712.8,453.6 626.4,540 540,453.6 				"/>
				<polygon class="st10" points="626.4,367.2 712.8,280.8 799.2,367.2 712.8,453.6 626.4,367.2 				"/>
				<polygon class="st11" points="367.2,799.2 453.6,712.8 540,799.2 453.6,885.6 367.2,799.2 				"/>
				<polygon class="st12" points="453.6,712.8 540,626.4 626.4,712.8 540,799.2 453.6,712.8 				"/>
				<polygon class="st13" points="540,626.4 626.4,540 712.8,626.4 626.4,712.8 540,626.4 				"/>
				<polygon class="st10" points="626.4,540 712.8,453.6 799.2,540 712.8,626.4 626.4,540 				"/>
				<polygon class="st14" points="712.8,453.6 799.2,367.2 885.6,453.6 799.2,540 712.8,453.6 				"/>
				<polygon class="st3" points="453.6,885.6 540,799.2 626.4,885.6 540,972 453.6,885.6 				"/>
				<polygon class="st11" points="540,799.2 626.4,712.8 712.8,799.2 626.4,885.6 540,799.2 				"/>
				<polygon class="st12" points="626.4,712.8 712.8,626.4 799.2,712.8 712.8,799.2 626.4,712.8 				"/>
				<polygon class="st14" points="712.8,626.4 799.2,540 885.6,626.4 799.2,712.8 712.8,626.4 				"/>
				<polygon class="st3" points="799.2,540 885.6,453.6 972,540 885.6,626.4 799.2,540 				"/>
				<polygon class="st6" points="194.4,280.8 280.8,194.4 367.2,280.8 280.8,367.2 194.4,280.8 				"/>
				<polygon class="st14" points="712.8,280.8 799.2,194.4 885.6,280.8 799.2,367.2 712.8,280.8 				"/>
				<polygon class="st11" points="712.8,799.2 799.2,712.8 885.6,799.2 799.2,885.6 712.8,799.2 				"/>
				<polygon class="st4" points="194.4,799.2 280.8,712.8 367.2,799.2 280.8,885.6 194.4,799.2 				"/>
			</g>
			<path class="st15" d="M812.89,394.97v-64.26l-184.35-86.58v-0.26H445.5v0.37l-169.85,80.71h-0.86v12.49h-0.07v57.53h22.02v-48
				H445.5v86.01l-170,80.81h-0.86v0.54h-0.07v69.47h22.02v-47.99H445.5V944.1h22.02v-0.25l1.47,0.67l68.29-149.23l69.18,149.73
				l22.07-0.01V535.82h162.18v47.99h22.02v-64.25l-184.2-86.87v-85.72h162.33v48H812.89z M606.51,265.89v59.06H467.53v-59.06H606.51
				z M326.97,324.95l118.53-56.33v56.33H326.97z M606.51,513.79H467.53v-60.54c32.68-0.12,106.9,0.19,138.99,0.07V513.79z
				 M326.8,513.79l118.71-56.43v56.43H326.8z M467.53,894.8V644.33l57.58,124.62L467.53,894.8z M549.35,768.91l57.16-124.93v248.64
				L549.35,768.91z M606.51,591.05l-69.33,151.52l-69.65-150.74v-56.01h138.99V591.05z M748.87,513.79H628.54v-56.75L748.87,513.79z
				 M606.51,431.3c-32.04,0.12-106.11-0.2-138.99-0.07v-84.26h138.99V431.3z M628.54,268.45l120.29,56.49H628.54V268.45z"/>
		</g>
	</g>
</g>
<g id="White" class="st0">
	<g class="st1">
		<g>
			<g>
				<polygon class="st2" points="324,432 432,324 540,432 432,540 324,432 				"/>
				<polygon class="st16" points="0,540 108,432 216,540 108,648 0,540 				"/>
				<polygon class="st4" points="108,432 216,324 324,432 216,540 108,432 				"/>
				<polygon class="st5" points="216,324 324,216 432,324 324,432 216,324 				"/>
				<polygon class="st6" points="324,216 432,108 540,216 432,324 324,216 				"/>
				<polygon class="st16" points="432,108 540,0 648,108 540,216 432,108 				"/>
				<polygon class="st4" points="108,648 216,540 324,648 216,756 108,648 				"/>
				<polygon class="st7" points="216,540 324,432 432,540 324,648 216,540 				"/>
				<polygon class="st5" points="432,324 540,216 648,324 540,432 432,324 				"/>
				<polygon class="st6" points="540,216 648,108 756,216 648,324 540,216 				"/>
				<polygon class="st7" points="216,756 324,648 432,756 324,864 216,756 				"/>
				<polygon class="st8" points="324,648 432,540 540,648 432,756 324,648 				"/>
				<polygon class="st9" points="540,432 648,324 756,432 648,540 540,432 				"/>
				<polygon class="st10" points="648,324 756,216 864,324 756,432 648,324 				"/>
				<polygon class="st11" points="324,864 432,756 540,864 432,972 324,864 				"/>
				<polygon class="st12" points="432,756 540,648 648,756 540,864 432,756 				"/>
				<polygon class="st13" points="540,648 648,540 756,648 648,756 540,648 				"/>
				<polygon class="st10" points="648,540 756,432 864,540 756,648 648,540 				"/>
				<polygon class="st14" points="756,432 864,324 972,432 864,540 756,432 				"/>
				<polygon class="st16" points="432,972 540,864 648,972 540,1080 432,972 				"/>
				<polygon class="st11" points="540,864 648,756 756,864 648,972 540,864 				"/>
				<polygon class="st12" points="648,756 756,648 864,756 756,864 648,756 				"/>
				<polygon class="st14" points="756,648 864,540 972,648 864,756 756,648 				"/>
				<polygon class="st16" points="864,540 972,432 1080,540 972,648 864,540 				"/>
				<polygon class="st6" points="108,216 216,108 324,216 216,324 108,216 				"/>
				<polygon class="st14" points="756,216 864,108 972,216 864,324 756,216 				"/>
				<polygon class="st11" points="756,864 864,756 972,864 864,972 756,864 				"/>
				<polygon class="st4" points="108,864 216,756 324,864 216,972 108,864 				"/>
			</g>
			<path class="st15" d="M881.12,358.71v-80.32L650.67,170.16v-0.32H421.88v0.46L209.57,271.19h-1.08v15.62h-0.09v71.91h27.53v-60
				h185.95v107.51l-212.5,101.02h-1.08v0.68h-0.09v86.84h27.53v-59.99h186.14v510.35h27.53v-0.31l1.83,0.84l85.36-186.54
				l86.48,187.16l27.59-0.01V534.77h202.72v59.99h27.53v-80.31L650.67,405.86V298.71h202.91v60H881.12z M623.14,197.36v73.82H449.41
				v-73.82H623.14z M273.72,271.19l148.16-70.41v70.41H273.72z M623.14,507.24H449.41v-75.67c40.85-0.16,133.63,0.24,173.73,0.09
				V507.24z M273.5,507.24l148.39-70.54v70.54H273.5z M449.41,983.5V670.41l71.98,155.78L449.41,983.5z M551.69,826.14l71.45-156.16
				v310.8L551.69,826.14z M623.14,603.82l-86.67,189.4l-87.07-188.43v-70.02h173.73V603.82z M801.09,507.24H650.67V436.3
				L801.09,507.24z M623.14,404.13c-40.05,0.15-132.64-0.25-173.73-0.09V298.71h173.73V404.13z M650.67,200.57l150.36,70.62H650.67
				V200.57z"/>
		</g>
	</g>
</g>
<g id="Color_1_">
	<g>
		<g>
			<polygon class="st2" points="324,432 432,324 540,432 432,540 324,432 			"/>
			<polygon class="st16" points="0,540 108,432 216,540 108,648 0,540 			"/>
			<polygon class="st4" points="108,432 216,324 324,432 216,540 108,432 			"/>
			<polygon class="st5" points="216,324 324,216 432,324 324,432 216,324 			"/>
			<polygon class="st6" points="324,216 432,108 540,216 432,324 324,216 			"/>
			<polygon class="st16" points="432,108 540,0 648,108 540,216 432,108 			"/>
			<polygon class="st4" points="108,648 216,540 324,648 216,756 108,648 			"/>
			<polygon class="st7" points="216,540 324,432 432,540 324,648 216,540 			"/>
			<polygon class="st5" points="432,324 540,216 648,324 540,432 432,324 			"/>
			<polygon class="st6" points="540,216 648,108 756,216 648,324 540,216 			"/>
			<polygon class="st7" points="216,756 324,648 432,756 324,864 216,756 			"/>
			<polygon class="st8" points="324,648 432,540 540,648 432,756 324,648 			"/>
			<polygon class="st9" points="540,432 648,324 756,432 648,540 540,432 			"/>
			<polygon class="st10" points="648,324 756,216 864,324 756,432 648,324 			"/>
			<polygon class="st11" points="324,864 432,756 540,864 432,972 324,864 			"/>
			<polygon class="st12" points="432,756 540,648 648,756 540,864 432,756 			"/>
			<polygon class="st13" points="540,648 648,540 756,648 648,756 540,648 			"/>
			<polygon class="st10" points="648,540 756,432 864,540 756,648 648,540 			"/>
			<polygon class="st14" points="756,432 864,324 972,432 864,540 756,432 			"/>
			<polygon class="st16" points="432,972 540,864 648,972 540,1080 432,972 			"/>
			<polygon class="st11" points="540,864 648,756 756,864 648,972 540,864 			"/>
			<polygon class="st12" points="648,756 756,648 864,756 756,864 648,756 			"/>
			<polygon class="st14" points="756,648 864,540 972,648 864,756 756,648 			"/>
			<polygon class="st16" points="864,540 972,432 1080,540 972,648 864,540 			"/>
			<polygon class="st6" points="108,216 216,108 324,216 216,324 108,216 			"/>
			<polygon class="st14" points="756,216 864,108 972,216 864,324 756,216 			"/>
			<polygon class="st11" points="756,864 864,756 972,864 864,972 756,864 			"/>
			<polygon class="st4" points="108,864 216,756 324,864 216,972 108,864 			"/>
		</g>
		<path class="st15" d="M881.12,358.71v-80.32L650.67,170.16v-0.32H421.88v0.46L209.57,271.19h-1.08v15.62h-0.09v71.91h27.53v-60
			h185.95v107.51l-212.5,101.02h-1.08v0.68h-0.09v86.84h27.53v-59.99h186.14v510.35h27.53v-0.31l1.83,0.84l85.36-186.54
			l86.48,187.16l27.59-0.01V534.77h202.72v59.99h27.53v-80.31L650.67,405.86V298.71h202.91v60H881.12z M623.14,197.36v73.82H449.41
			v-73.82H623.14z M273.72,271.19l148.16-70.41v70.41H273.72z M623.14,507.24H449.41v-75.67c40.85-0.16,133.63,0.24,173.73,0.09
			V507.24z M273.5,507.24l148.39-70.54v70.54H273.5z M449.41,983.5V670.41l71.98,155.78L449.41,983.5z M551.69,826.14l71.45-156.16
			v310.8L551.69,826.14z M623.14,603.82l-86.67,189.4l-87.07-188.43v-70.02h173.73V603.82z M801.09,507.24H650.67V436.3
			L801.09,507.24z M623.14,404.13c-40.05,0.15-132.64-0.25-173.73-0.09V298.71h173.73V404.13z M650.67,200.57l150.36,70.62H650.67
			V200.57z"/>
	</g>
</g>
<g id="Full" class="st0">
</g>
<g id="Layer_5" class="st0">
</g>
</svg>
