<?xml version="1.0" encoding="utf-8"?>
<!-- Generator: Adobe Illustrator 25.1.0, SVG Export Plug-In . SVG Version: 6.00 Build 0)  -->
<svg version="1.1" id="Layer_1" xmlns="http://www.w3.org/2000/svg" xmlns:xlink="http://www.w3.org/1999/xlink" x="0px" y="0px"
	 viewBox="0 0 1920 790" style="enable-background:new 0 0 1920 790;" xml:space="preserve">
<style type="text/css">
	.st0{fill:#FFFFFF;}
</style>
<g id="White">
	<g>
		<path class="st0" d="M434.64,245.38H251.31v-56.19c0-26.23-2.35-42.92-7.04-50.11c-4.68-7.18-12.5-10.77-23.44-10.77
			c-11.89,0-20.87,4.85-26.96,14.54c-6.09,9.68-9.14,24.37-9.14,44.05c0,25.3,3.42,44.36,10.27,57.17
			c6.54,12.81,25.14,28.26,55.78,46.35C338.66,342.5,394,385.25,416.82,418.65c22.81,33.41,34.23,87.26,34.23,161.56
			c0,54.01-6.33,93.82-19,119.41c-12.65,25.6-37.12,47.06-73.38,64.39C322.42,781.34,280.21,790,232.08,790
			c-52.83,0-97.92-9.99-135.27-29.97C59.46,740.05,35,714.61,23.44,683.7C11.87,652.79,6.09,608.93,6.09,552.11v-49.64h183.32v92.25
			c0,28.41,2.58,46.68,7.74,54.79c5.16,8.12,14.3,12.17,27.43,12.17c13.12,0,22.89-5.15,29.3-15.45c6.4-10.3,9.61-25.6,9.61-45.89
			c0-44.64-6.09-73.83-18.28-87.57c-12.5-13.73-43.3-36.68-92.37-68.84c-49.07-32.47-81.58-56.03-97.52-70.71
			c-15.95-14.67-29.15-34.96-39.62-60.88C5.23,286.44,0,253.34,0,213.07C0,155,7.42,112.55,22.27,85.7
			C37.11,58.85,61.1,37.86,94.23,22.71C127.37,7.57,167.38,0,214.26,0c51.26,0,94.95,8.28,131.05,24.82
			c36.1,16.55,60.01,37.39,71.73,62.52c11.73,25.13,17.59,67.83,17.59,128.08V245.38z"/>
		<path class="st0" d="M512.93,15.92h329.14v151.73H710.32v143.77h123.31v144.23H710.32v166.71H855.2v151.73H512.93V15.92z"/>
		<path class="st0" d="M911.94,15.92h329.14v151.73h-131.76v143.77h123.31v144.23h-123.31v166.71h144.88v151.73H911.94V15.92z"/>
		<path class="st0" d="M1920,15.92v758.16h-172.55l-0.23-511.84l-68.7,511.84h-122.37l-72.44-500.13l-0.24,500.13h-172.54V15.92
			h255.42c7.57,45.59,15.38,99.31,23.43,161.18l28.03,192.85l45.36-354.03H1920z"/>
	</g>
</g>
</svg>
