<?xml version="1.0" encoding="utf-8"?>
<!-- Generator: Adobe Illustrator 25.1.0, SVG Export Plug-In . SVG Version: 6.00 Build 0)  -->
<svg version="1.1" id="Layer_1" xmlns="http://www.w3.org/2000/svg" xmlns:xlink="http://www.w3.org/1999/xlink" x="0px" y="0px"
	 viewBox="0 0 1920 984" style="enable-background:new 0 0 1920 984;" xml:space="preserve">
<style type="text/css">
	.st0{fill-rule:evenodd;clip-rule:evenodd;fill:#FFA600;}
	.st1{fill-rule:evenodd;clip-rule:evenodd;fill:#FEFEFE;}
	.st2{fill-rule:evenodd;clip-rule:evenodd;fill:#CDFADA;}
	.st3{fill-rule:evenodd;clip-rule:evenodd;fill:#FFD06B;}
	.st4{fill-rule:evenodd;clip-rule:evenodd;fill:#FFF0C7;}
	.st5{fill-rule:evenodd;clip-rule:evenodd;fill:#56D66E;}
	.st6{fill-rule:evenodd;clip-rule:evenodd;fill:#00843C;}
	.st7{fill-rule:evenodd;clip-rule:evenodd;fill:#C41265;}
	.st8{fill-rule:evenodd;clip-rule:evenodd;fill:#F57A9D;}
	.st9{fill-rule:evenodd;clip-rule:evenodd;fill:#CCE4FF;}
	.st10{fill-rule:evenodd;clip-rule:evenodd;fill:#6697DD;}
	.st11{fill-rule:evenodd;clip-rule:evenodd;fill:#2B4D99;}
	.st12{fill-rule:evenodd;clip-rule:evenodd;fill:#FFDEDE;}
</style>
<g id="Color_1_">
	<g>
		<g>
			<polygon class="st0" points="295.06,393.6 393.41,295.2 491.77,393.6 393.41,492 295.06,393.6 			"/>
			<polygon class="st1" points="0,492 98.36,393.6 196.71,492 98.36,590.4 0,492 			"/>
			<polygon class="st2" points="98.36,393.6 196.71,295.2 295.06,393.6 196.71,492 98.36,393.6 			"/>
			<polygon class="st3" points="196.71,295.2 295.06,196.8 393.41,295.2 295.06,393.6 196.71,295.2 			"/>
			<polygon class="st4" points="295.06,196.8 393.41,98.4 491.77,196.8 393.41,295.2 295.06,196.8 			"/>
			<polygon class="st1" points="393.41,98.4 491.77,0 590.12,98.4 491.77,196.8 393.41,98.4 			"/>
			<polygon class="st2" points="98.35,590.4 196.71,492 295.06,590.4 196.71,688.8 98.35,590.4 			"/>
			<polygon class="st5" points="196.71,492 295.06,393.6 393.41,492 295.06,590.4 196.71,492 			"/>
			<polygon class="st3" points="393.41,295.2 491.77,196.8 590.12,295.2 491.77,393.6 393.41,295.2 			"/>
			<polygon class="st4" points="491.77,196.8 590.12,98.4 688.47,196.8 590.12,295.2 491.77,196.8 			"/>
			<polygon class="st5" points="196.71,688.8 295.06,590.4 393.41,688.8 295.06,787.2 196.71,688.8 			"/>
			<polygon class="st6" points="295.06,590.4 393.41,492 491.77,590.4 393.41,688.8 295.06,590.4 			"/>
			<polygon class="st7" points="491.77,393.6 590.12,295.2 688.47,393.6 590.12,492 491.77,393.6 			"/>
			<polygon class="st8" points="590.12,295.2 688.47,196.8 786.83,295.2 688.47,393.6 590.12,295.2 			"/>
			<polygon class="st9" points="295.06,787.2 393.41,688.8 491.77,787.2 393.41,885.6 295.06,787.2 			"/>
			<polygon class="st10" points="393.41,688.8 491.77,590.4 590.12,688.8 491.77,787.2 393.41,688.8 			"/>
			<polygon class="st11" points="491.77,590.4 590.12,492 688.47,590.4 590.12,688.8 491.77,590.4 			"/>
			<polygon class="st8" points="590.12,492 688.47,393.6 786.83,492 688.47,590.4 590.12,492 			"/>
			<polygon class="st12" points="688.47,393.6 786.83,295.2 885.18,393.6 786.83,492 688.47,393.6 			"/>
			<polygon class="st1" points="393.41,885.6 491.77,787.2 590.12,885.6 491.77,984 393.41,885.6 			"/>
			<polygon class="st9" points="491.77,787.2 590.12,688.8 688.47,787.2 590.12,885.6 491.77,787.2 			"/>
			<polygon class="st10" points="590.12,688.8 688.47,590.4 786.83,688.8 688.47,787.2 590.12,688.8 			"/>
			<polygon class="st12" points="688.47,590.4 786.83,492 885.18,590.4 786.83,688.8 688.47,590.4 			"/>
			<polygon class="st1" points="786.83,492 885.18,393.6 983.53,492 885.18,590.4 786.83,492 			"/>
			<polygon class="st4" points="98.36,196.8 196.71,98.4 295.06,196.8 196.71,295.2 98.36,196.8 			"/>
			<polygon class="st12" points="688.47,196.8 786.83,98.4 885.18,196.8 786.83,295.2 688.47,196.8 			"/>
			<polygon class="st9" points="688.47,787.2 786.83,688.8 885.18,787.2 786.83,885.6 688.47,787.2 			"/>
			<polygon class="st2" points="98.35,787.2 196.71,688.8 295.06,787.2 196.71,885.6 98.35,787.2 			"/>
		</g>
		<path d="M802.41,326.82v-73.18l-209.86-98.61v-0.3H384.2v0.42l-193.35,91.92h-0.98v14.23h-0.08v65.52h25.07v-54.66H384.2v97.95
			l-193.52,92.04h-0.98v0.62h-0.08v79.12h25.07v-54.66H384.2v464.98h25.07v-0.28l1.67,0.76l77.73-169.96l78.76,170.52l25.13-0.01
			V487.24h184.61v54.66h25.07v-73.17l-209.68-98.94v-97.63h184.79v54.66H802.41z M567.48,179.82v67.26H409.27v-67.26H567.48z
			 M249.27,247.08l134.93-64.15v64.15H249.27z M567.48,462.15H409.27v-68.95c37.2-0.14,121.69,0.22,158.22,0.08V462.15z
			 M249.07,462.15l135.13-64.27v64.27H249.07z M409.27,896.08V610.82l65.55,141.93L409.27,896.08z M502.41,752.7l65.07-142.28V893.6
			L502.41,752.7z M567.48,550.14l-78.92,172.57l-79.29-171.68v-63.79h158.22V550.14z M729.54,462.15H592.55v-64.64L729.54,462.15z
			 M567.48,368.21c-36.47,0.14-120.79-0.22-158.22-0.08v-95.96h158.22V368.21z M592.55,182.74l136.93,64.34H592.55V182.74z"/>
	</g>
	<g>
		<path d="M1144.41,465.99h-95.73V436.6c0-13.72-1.23-22.45-3.68-26.21c-2.44-3.76-6.53-5.64-12.24-5.64
			c-6.21,0-10.9,2.54-14.08,7.6c-3.18,5.07-4.77,12.74-4.77,23.04c0,13.23,1.78,23.2,5.36,29.9c3.42,6.7,13.13,14.78,29.13,24.24
			c45.88,27.25,74.78,49.6,86.69,67.07c11.91,17.47,17.87,45.64,17.87,84.5c0,28.25-3.31,49.07-9.92,62.46
			c-6.61,13.39-19.38,24.62-38.31,33.68c-18.93,9.07-40.97,13.6-66.1,13.6c-27.58,0-51.13-5.23-70.63-15.68
			c-19.5-10.45-32.28-23.76-38.31-39.92c-6.04-16.17-9.06-39.11-9.06-68.83v-25.96h95.72v48.25c0,14.86,1.35,24.41,4.04,28.66
			c2.69,4.25,7.47,6.37,14.32,6.37c6.85,0,11.95-2.69,15.3-8.08c3.34-5.39,5.02-13.39,5.02-24c0-23.35-3.18-38.62-9.54-45.8
			c-6.53-7.18-22.61-19.18-48.23-36c-25.62-16.98-42.6-29.31-50.92-36.99c-8.33-7.67-15.22-18.28-20.69-31.84
			c-5.47-13.55-8.2-30.86-8.2-51.93c0-30.37,3.87-52.58,11.63-66.62c7.75-14.04,20.27-25.02,37.58-32.94
			c17.3-7.92,38.19-11.88,62.67-11.88c26.77,0,49.58,4.33,68.43,12.98c18.85,8.66,31.34,19.56,37.46,32.7
			c6.12,13.15,9.19,35.48,9.19,66.99V465.99z"/>
		<path d="M1185.29,345.97h171.86v79.36h-68.8v75.2h64.39v75.44h-64.39v87.2h75.65v79.36h-178.72V345.97z"/>
		<path d="M1393.64,345.97h171.86v79.36h-68.8v75.2h64.39v75.44h-64.39v87.2h75.65v79.36h-178.72V345.97z"/>
		<path d="M1920,345.97v396.55h-90.1l-0.12-267.71l-35.87,267.71h-63.9l-37.82-261.59l-0.12,261.59h-90.09V345.97h133.37
			c3.95,23.84,8.03,51.94,12.23,84.31l14.64,100.87l23.69-185.17H1920z"/>
	</g>
</g>
</svg>
